solid STL generated by MeshLab
  facet normal -7.071068e-01 -7.071068e-01 -0.000000e+00
    outer loop
      vertex  -2.596447e-01 -3.535534e-02  1.800000e-01
      vertex  -3.250000e-01  3.000000e-02  1.800000e-01
      vertex  -2.596447e-01 -3.535534e-02 -1.800000e-01
    endloop
  endfacet
  facet normal -7.071068e-01 -7.071068e-01  0.000000e+00
    outer loop
      vertex  -2.596447e-01 -3.535534e-02 -1.800000e-01
      vertex  -3.250000e-01  3.000000e-02  1.800000e-01
      vertex  -3.250000e-01  3.000000e-02 -1.800000e-01
    endloop
  endfacet
  facet normal -1.000000e+00 -0.000000e+00 -0.000000e+00
    outer loop
      vertex  -3.250000e-01  8.000000e-02  1.800000e-01
      vertex  -3.250000e-01  8.000000e-02 -1.800000e-01
      vertex  -3.250000e-01  3.000000e-02  1.800000e-01
    endloop
  endfacet
  facet normal -1.000000e+00  0.000000e+00  0.000000e+00
    outer loop
      vertex  -3.250000e-01  3.000000e-02  1.800000e-01
      vertex  -3.250000e-01  8.000000e-02 -1.800000e-01
      vertex  -3.250000e-01  3.000000e-02 -1.800000e-01
    endloop
  endfacet
  facet normal -7.071068e-01  7.071068e-01  0.000000e+00
    outer loop
      vertex  -3.079289e-01  9.707107e-02  1.970711e-01
      vertex  -3.079289e-01  9.707107e-02 -1.970711e-01
      vertex  -3.250000e-01  8.000000e-02  1.800000e-01
    endloop
  endfacet
  facet normal -7.071068e-01  7.071068e-01  0.000000e+00
    outer loop
      vertex  -3.250000e-01  8.000000e-02  1.800000e-01
      vertex  -3.079289e-01  9.707107e-02 -1.970711e-01
      vertex  -3.250000e-01  8.000000e-02 -1.800000e-01
    endloop
  endfacet
  facet normal  0.000000e+00 -1.000000e+00  0.000000e+00
    outer loop
      vertex  -2.242893e-01 -5.000000e-02  1.800000e-01
      vertex  -2.242893e-01 -5.000000e-02 -1.800000e-01
      vertex   2.242893e-01 -5.000000e-02  1.800000e-01
    endloop
  endfacet
  facet normal  0.000000e+00 -1.000000e+00 -0.000000e+00
    outer loop
      vertex   2.242893e-01 -5.000000e-02  1.800000e-01
      vertex  -2.242893e-01 -5.000000e-02 -1.800000e-01
      vertex   2.242893e-01 -5.000000e-02 -1.800000e-01
    endloop
  endfacet
  facet normal -1.305263e-01 -9.914449e-01  0.000000e+00
    outer loop
      vertex  -2.242893e-01 -5.000000e-02 -1.800000e-01
      vertex  -2.242893e-01 -5.000000e-02  1.800000e-01
      vertex  -2.372303e-01 -4.829629e-02  1.800000e-01
    endloop
  endfacet
  facet normal -1.305263e-01 -9.914449e-01  0.000000e+00
    outer loop
      vertex  -2.242893e-01 -5.000000e-02 -1.800000e-01
      vertex  -2.372303e-01 -4.829629e-02  1.800000e-01
      vertex  -2.372303e-01 -4.829629e-02 -1.800000e-01
    endloop
  endfacet
  facet normal -3.826835e-01 -9.238794e-01  0.000000e+00
    outer loop
      vertex  -2.372303e-01 -4.829629e-02 -1.800000e-01
      vertex  -2.372303e-01 -4.829629e-02  1.800000e-01
      vertex  -2.492893e-01 -4.330127e-02  1.800000e-01
    endloop
  endfacet
  facet normal -3.826835e-01 -9.238794e-01  0.000000e+00
    outer loop
      vertex  -2.372303e-01 -4.829629e-02 -1.800000e-01
      vertex  -2.492893e-01 -4.330127e-02  1.800000e-01
      vertex  -2.492893e-01 -4.330127e-02 -1.800000e-01
    endloop
  endfacet
  facet normal -6.087613e-01 -7.933534e-01  0.000000e+00
    outer loop
      vertex  -2.492893e-01 -4.330127e-02 -1.800000e-01
      vertex  -2.492893e-01 -4.330127e-02  1.800000e-01
      vertex  -2.596447e-01 -3.535534e-02  1.800000e-01
    endloop
  endfacet
  facet normal -6.087613e-01 -7.933534e-01  0.000000e+00
    outer loop
      vertex  -2.492893e-01 -4.330127e-02 -1.800000e-01
      vertex  -2.596447e-01 -3.535534e-02  1.800000e-01
      vertex  -2.596447e-01 -3.535534e-02 -1.800000e-01
    endloop
  endfacet
  facet normal  1.305263e-01 -9.914449e-01  0.000000e+00
    outer loop
      vertex   2.242893e-01 -5.000000e-02  1.800000e-01
      vertex   2.242893e-01 -5.000000e-02 -1.800000e-01
      vertex   2.372303e-01 -4.829629e-02 -1.800000e-01
    endloop
  endfacet
  facet normal  1.305263e-01 -9.914449e-01  0.000000e+00
    outer loop
      vertex   2.242893e-01 -5.000000e-02  1.800000e-01
      vertex   2.372303e-01 -4.829629e-02 -1.800000e-01
      vertex   2.372303e-01 -4.829629e-02  1.800000e-01
    endloop
  endfacet
  facet normal  3.826835e-01 -9.238794e-01  0.000000e+00
    outer loop
      vertex   2.372303e-01 -4.829629e-02  1.800000e-01
      vertex   2.372303e-01 -4.829629e-02 -1.800000e-01
      vertex   2.492893e-01 -4.330127e-02 -1.800000e-01
    endloop
  endfacet
  facet normal  3.826835e-01 -9.238794e-01  0.000000e+00
    outer loop
      vertex   2.372303e-01 -4.829629e-02  1.800000e-01
      vertex   2.492893e-01 -4.330127e-02 -1.800000e-01
      vertex   2.492893e-01 -4.330127e-02  1.800000e-01
    endloop
  endfacet
  facet normal  6.087613e-01 -7.933534e-01  0.000000e+00
    outer loop
      vertex   2.492893e-01 -4.330127e-02  1.800000e-01
      vertex   2.492893e-01 -4.330127e-02 -1.800000e-01
      vertex   2.596447e-01 -3.535534e-02 -1.800000e-01
    endloop
  endfacet
  facet normal  6.087613e-01 -7.933534e-01  0.000000e+00
    outer loop
      vertex   2.492893e-01 -4.330127e-02  1.800000e-01
      vertex   2.596447e-01 -3.535534e-02 -1.800000e-01
      vertex   2.596447e-01 -3.535534e-02  1.800000e-01
    endloop
  endfacet
  facet normal -7.071068e-01  0.000000e+00  7.071068e-01
    outer loop
      vertex  -3.250000e-01  8.000000e-02  1.800000e-01
      vertex  -3.250000e-01  3.000000e-02  1.800000e-01
      vertex  -3.079289e-01  9.707107e-02  1.970711e-01
    endloop
  endfacet
  facet normal -7.071071e-01  1.500591e-07  7.071065e-01
    outer loop
      vertex  -3.079289e-01  9.707107e-02  1.970711e-01
      vertex  -3.250000e-01  3.000000e-02  1.800000e-01
      vertex  -3.050000e-01  3.828427e-02  2.000000e-01
    endloop
  endfacet
  facet normal -7.071086e-01  0.000000e+00  7.071050e-01
    outer loop
      vertex  -3.079289e-01  9.707107e-02  1.970711e-01
      vertex  -3.050000e-01  3.828427e-02  2.000000e-01
      vertex  -3.050000e-01  9.910180e-02  2.000000e-01
    endloop
  endfacet
  facet normal -5.000001e-01 -5.000001e-01  7.071066e-01
    outer loop
      vertex  -3.050000e-01  3.828427e-02  2.000000e-01
      vertex  -3.250000e-01  3.000000e-02  1.800000e-01
      vertex  -2.455025e-01 -2.121320e-02  2.000000e-01
    endloop
  endfacet
  facet normal -5.000001e-01 -5.000000e-01  7.071068e-01
    outer loop
      vertex  -2.455025e-01 -2.121320e-02  2.000000e-01
      vertex  -3.250000e-01  3.000000e-02  1.800000e-01
      vertex  -2.596447e-01 -3.535534e-02  1.800000e-01
    endloop
  endfacet
  facet normal -9.269167e-02 -7.040625e-01  7.040626e-01
    outer loop
      vertex  -2.242893e-01 -5.000000e-02  1.800000e-01
      vertex  -2.242893e-01 -3.000000e-02  2.000000e-01
      vertex  -2.372303e-01 -4.829629e-02  1.800000e-01
    endloop
  endfacet
  facet normal -9.269159e-02 -7.040625e-01  7.040627e-01
    outer loop
      vertex  -2.372303e-01 -4.829629e-02  1.800000e-01
      vertex  -2.242893e-01 -3.000000e-02  2.000000e-01
      vertex  -2.320539e-01 -2.897777e-02  2.000000e-01
    endloop
  endfacet
  facet normal -2.717580e-01 -6.560818e-01  7.040626e-01
    outer loop
      vertex  -2.372303e-01 -4.829629e-02  1.800000e-01
      vertex  -2.320539e-01 -2.897777e-02  2.000000e-01
      vertex  -2.492893e-01 -4.330127e-02  1.800000e-01
    endloop
  endfacet
  facet normal -2.717577e-01 -6.560821e-01  7.040625e-01
    outer loop
      vertex  -2.492893e-01 -4.330127e-02  1.800000e-01
      vertex  -2.320539e-01 -2.897777e-02  2.000000e-01
      vertex  -2.392893e-01 -2.598076e-02  2.000000e-01
    endloop
  endfacet
  facet normal -4.323045e-01 -5.633904e-01  7.040626e-01
    outer loop
      vertex  -2.492893e-01 -4.330127e-02  1.800000e-01
      vertex  -2.392893e-01 -2.598076e-02  2.000000e-01
      vertex  -2.596447e-01 -3.535534e-02  1.800000e-01
    endloop
  endfacet
  facet normal -4.323046e-01 -5.633904e-01  7.040626e-01
    outer loop
      vertex  -2.596447e-01 -3.535534e-02  1.800000e-01
      vertex  -2.392893e-01 -2.598076e-02  2.000000e-01
      vertex  -2.455025e-01 -2.121320e-02  2.000000e-01
    endloop
  endfacet
  facet normal  0.000000e+00 -7.071066e-01  7.071069e-01
    outer loop
      vertex   2.242893e-01 -3.000000e-02  2.000000e-01
      vertex  -2.242893e-01 -3.000000e-02  2.000000e-01
      vertex   2.242893e-01 -5.000000e-02  1.800000e-01
    endloop
  endfacet
  facet normal  0.000000e+00 -7.071066e-01  7.071069e-01
    outer loop
      vertex   2.242893e-01 -5.000000e-02  1.800000e-01
      vertex  -2.242893e-01 -3.000000e-02  2.000000e-01
      vertex  -2.242893e-01 -5.000000e-02  1.800000e-01
    endloop
  endfacet
  facet normal  4.323045e-01 -5.633904e-01  7.040626e-01
    outer loop
      vertex   2.596447e-01 -3.535534e-02  1.800000e-01
      vertex   2.455025e-01 -2.121320e-02  2.000000e-01
      vertex   2.492893e-01 -4.330127e-02  1.800000e-01
    endloop
  endfacet
  facet normal  4.323045e-01 -5.633903e-01  7.040626e-01
    outer loop
      vertex   2.492893e-01 -4.330127e-02  1.800000e-01
      vertex   2.455025e-01 -2.121320e-02  2.000000e-01
      vertex   2.392893e-01 -2.598076e-02  2.000000e-01
    endloop
  endfacet
  facet normal  2.717581e-01 -6.560819e-01  7.040626e-01
    outer loop
      vertex   2.492893e-01 -4.330127e-02  1.800000e-01
      vertex   2.392893e-01 -2.598076e-02  2.000000e-01
      vertex   2.372303e-01 -4.829629e-02  1.800000e-01
    endloop
  endfacet
  facet normal  2.717577e-01 -6.560819e-01  7.040627e-01
    outer loop
      vertex   2.372303e-01 -4.829629e-02  1.800000e-01
      vertex   2.392893e-01 -2.598076e-02  2.000000e-01
      vertex   2.320539e-01 -2.897777e-02  2.000000e-01
    endloop
  endfacet
  facet normal  9.269167e-02 -7.040625e-01  7.040626e-01
    outer loop
      vertex   2.372303e-01 -4.829629e-02  1.800000e-01
      vertex   2.320539e-01 -2.897777e-02  2.000000e-01
      vertex   2.242893e-01 -5.000000e-02  1.800000e-01
    endloop
  endfacet
  facet normal  9.269173e-02 -7.040625e-01  7.040627e-01
    outer loop
      vertex   2.242893e-01 -5.000000e-02  1.800000e-01
      vertex   2.320539e-01 -2.897777e-02  2.000000e-01
      vertex   2.242893e-01 -3.000000e-02  2.000000e-01
    endloop
  endfacet
  facet normal  5.000001e-01 -5.000001e-01  7.071068e-01
    outer loop
      vertex   2.455025e-01 -2.121320e-02  2.000000e-01
      vertex   2.596447e-01 -3.535534e-02  1.800000e-01
      vertex   3.050000e-01  3.828427e-02  2.000000e-01
    endloop
  endfacet
  facet normal  5.000001e-01 -5.000001e-01  7.071066e-01
    outer loop
      vertex   3.050000e-01  3.828427e-02  2.000000e-01
      vertex   2.596447e-01 -3.535534e-02  1.800000e-01
      vertex   3.250000e-01  3.000000e-02  1.800000e-01
    endloop
  endfacet
  facet normal -5.000001e-01 -5.000001e-01 -7.071066e-01
    outer loop
      vertex  -3.250000e-01  3.000000e-02 -1.800000e-01
      vertex  -3.050000e-01  3.828427e-02 -2.000000e-01
      vertex  -2.596447e-01 -3.535534e-02 -1.800000e-01
    endloop
  endfacet
  facet normal -5.000000e-01 -4.999999e-01 -7.071067e-01
    outer loop
      vertex  -2.596447e-01 -3.535534e-02 -1.800000e-01
      vertex  -3.050000e-01  3.828427e-02 -2.000000e-01
      vertex  -2.455025e-01 -2.121320e-02 -2.000000e-01
    endloop
  endfacet
  facet normal -7.071070e-01  0.000000e+00 -7.071065e-01
    outer loop
      vertex  -3.250000e-01  3.000000e-02 -1.800000e-01
      vertex  -3.250000e-01  8.000000e-02 -1.800000e-01
      vertex  -3.050000e-01  3.828427e-02 -2.000000e-01
    endloop
  endfacet
  facet normal -7.071068e-01  1.709176e-07 -7.071066e-01
    outer loop
      vertex  -3.050000e-01  3.828427e-02 -2.000000e-01
      vertex  -3.250000e-01  8.000000e-02 -1.800000e-01
      vertex  -3.079289e-01  9.707107e-02 -1.970711e-01
    endloop
  endfacet
  facet normal -7.071086e-01  0.000000e+00 -7.071050e-01
    outer loop
      vertex  -3.050000e-01  3.828427e-02 -2.000000e-01
      vertex  -3.079289e-01  9.707107e-02 -1.970711e-01
      vertex  -3.050000e-01  9.910180e-02 -2.000000e-01
    endloop
  endfacet
  facet normal -5.697829e-01  8.217952e-01  0.000000e+00
    outer loop
      vertex  -3.050000e-01  9.910180e-02 -2.000000e-01
      vertex  -3.079289e-01  9.707107e-02 -1.970711e-01
      vertex  -3.079289e-01  9.707107e-02  1.970711e-01
    endloop
  endfacet
  facet normal -5.697829e-01  8.217953e-01  0.000000e+00
    outer loop
      vertex  -3.079289e-01  9.707107e-02  1.970711e-01
      vertex  -3.050000e-01  9.910180e-02  2.000000e-01
      vertex  -3.050000e-01  9.910180e-02 -2.000000e-01
    endloop
  endfacet
  facet normal -3.995784e-01  9.166991e-01  0.000000e+00
    outer loop
      vertex  -3.050000e-01  9.910180e-02 -2.000000e-01
      vertex  -3.050000e-01  9.910180e-02  2.000000e-01
      vertex  -3.047065e-01  9.922975e-02  2.000000e-01
    endloop
  endfacet
  facet normal -3.995784e-01  9.166991e-01  0.000000e+00
    outer loop
      vertex  -3.050000e-01  9.910180e-02 -2.000000e-01
      vertex  -3.047065e-01  9.922975e-02  2.000000e-01
      vertex  -3.047065e-01  9.922975e-02 -2.000000e-01
    endloop
  endfacet
  facet normal -1.962465e-01  9.805546e-01  0.000000e+00
    outer loop
      vertex  -3.047065e-01  9.922975e-02 -2.000000e-01
      vertex  -3.047065e-01  9.922975e-02  2.000000e-01
      vertex  -3.008579e-01  1.000000e-01  2.000000e-01
    endloop
  endfacet
  facet normal -1.962465e-01  9.805546e-01  0.000000e+00
    outer loop
      vertex  -3.047065e-01  9.922975e-02 -2.000000e-01
      vertex  -3.008579e-01  1.000000e-01  2.000000e-01
      vertex  -3.008579e-01  1.000000e-01 -2.000000e-01
    endloop
  endfacet
  facet normal  0.000000e+00  1.000000e+00  0.000000e+00
    outer loop
      vertex  -2.650000e-01  1.000000e-01  2.000000e-01
      vertex  -2.650000e-01  1.000000e-01 -2.000000e-01
      vertex  -3.008579e-01  1.000000e-01  2.000000e-01
    endloop
  endfacet
  facet normal  0.000000e+00  1.000000e+00  0.000000e+00
    outer loop
      vertex  -3.008579e-01  1.000000e-01  2.000000e-01
      vertex  -2.650000e-01  1.000000e-01 -2.000000e-01
      vertex  -3.008579e-01  1.000000e-01 -2.000000e-01
    endloop
  endfacet
  facet normal -7.071065e-01 -7.071070e-01  0.000000e+00
    outer loop
      vertex  -2.850000e-01  1.200000e-01 -2.000000e-01
      vertex  -2.650000e-01  1.000000e-01 -2.000000e-01
      vertex  -2.850000e-01  1.200000e-01  2.000000e-01
    endloop
  endfacet
  facet normal -7.071065e-01 -7.071070e-01  0.000000e+00
    outer loop
      vertex  -2.850000e-01  1.200000e-01  2.000000e-01
      vertex  -2.650000e-01  1.000000e-01 -2.000000e-01
      vertex  -2.650000e-01  1.000000e-01  2.000000e-01
    endloop
  endfacet
  facet normal  0.000000e+00 -1.000000e+00  0.000000e+00
    outer loop
      vertex  -3.008579e-01  1.200000e-01  2.000000e-01
      vertex  -3.008579e-01  1.200000e-01 -2.000000e-01
      vertex  -2.850000e-01  1.200000e-01  2.000000e-01
    endloop
  endfacet
  facet normal  0.000000e+00 -1.000000e+00 -0.000000e+00
    outer loop
      vertex  -2.850000e-01  1.200000e-01  2.000000e-01
      vertex  -3.008579e-01  1.200000e-01 -2.000000e-01
      vertex  -2.850000e-01  1.200000e-01 -2.000000e-01
    endloop
  endfacet
  facet normal  5.000001e-01 -5.000001e-01 -7.071066e-01
    outer loop
      vertex   3.050000e-01  3.828427e-02 -2.000000e-01
      vertex   3.250000e-01  3.000000e-02 -1.800000e-01
      vertex   2.455025e-01 -2.121320e-02 -2.000000e-01
    endloop
  endfacet
  facet normal  5.000001e-01 -5.000000e-01 -7.071068e-01
    outer loop
      vertex   2.455025e-01 -2.121320e-02 -2.000000e-01
      vertex   3.250000e-01  3.000000e-02 -1.800000e-01
      vertex   2.596447e-01 -3.535534e-02 -1.800000e-01
    endloop
  endfacet
  facet normal  9.269167e-02 -7.040625e-01 -7.040626e-01
    outer loop
      vertex   2.242893e-01 -5.000000e-02 -1.800000e-01
      vertex   2.242893e-01 -3.000000e-02 -2.000000e-01
      vertex   2.372303e-01 -4.829629e-02 -1.800000e-01
    endloop
  endfacet
  facet normal  9.269159e-02 -7.040625e-01 -7.040627e-01
    outer loop
      vertex   2.372303e-01 -4.829629e-02 -1.800000e-01
      vertex   2.242893e-01 -3.000000e-02 -2.000000e-01
      vertex   2.320539e-01 -2.897777e-02 -2.000000e-01
    endloop
  endfacet
  facet normal  2.717580e-01 -6.560818e-01 -7.040626e-01
    outer loop
      vertex   2.372303e-01 -4.829629e-02 -1.800000e-01
      vertex   2.320539e-01 -2.897777e-02 -2.000000e-01
      vertex   2.492893e-01 -4.330127e-02 -1.800000e-01
    endloop
  endfacet
  facet normal  2.717577e-01 -6.560821e-01 -7.040625e-01
    outer loop
      vertex   2.492893e-01 -4.330127e-02 -1.800000e-01
      vertex   2.320539e-01 -2.897777e-02 -2.000000e-01
      vertex   2.392893e-01 -2.598076e-02 -2.000000e-01
    endloop
  endfacet
  facet normal  4.323045e-01 -5.633904e-01 -7.040626e-01
    outer loop
      vertex   2.492893e-01 -4.330127e-02 -1.800000e-01
      vertex   2.392893e-01 -2.598076e-02 -2.000000e-01
      vertex   2.596447e-01 -3.535534e-02 -1.800000e-01
    endloop
  endfacet
  facet normal  4.323046e-01 -5.633904e-01 -7.040626e-01
    outer loop
      vertex   2.596447e-01 -3.535534e-02 -1.800000e-01
      vertex   2.392893e-01 -2.598076e-02 -2.000000e-01
      vertex   2.455025e-01 -2.121320e-02 -2.000000e-01
    endloop
  endfacet
  facet normal -0.000000e+00 -7.071066e-01 -7.071069e-01
    outer loop
      vertex   2.242893e-01 -5.000000e-02 -1.800000e-01
      vertex  -2.242893e-01 -5.000000e-02 -1.800000e-01
      vertex   2.242893e-01 -3.000000e-02 -2.000000e-01
    endloop
  endfacet
  facet normal -0.000000e+00 -7.071066e-01 -7.071069e-01
    outer loop
      vertex   2.242893e-01 -3.000000e-02 -2.000000e-01
      vertex  -2.242893e-01 -5.000000e-02 -1.800000e-01
      vertex  -2.242893e-01 -3.000000e-02 -2.000000e-01
    endloop
  endfacet
  facet normal -4.323045e-01 -5.633904e-01 -7.040626e-01
    outer loop
      vertex  -2.596447e-01 -3.535534e-02 -1.800000e-01
      vertex  -2.455025e-01 -2.121320e-02 -2.000000e-01
      vertex  -2.492893e-01 -4.330127e-02 -1.800000e-01
    endloop
  endfacet
  facet normal -4.323045e-01 -5.633903e-01 -7.040626e-01
    outer loop
      vertex  -2.492893e-01 -4.330127e-02 -1.800000e-01
      vertex  -2.455025e-01 -2.121320e-02 -2.000000e-01
      vertex  -2.392893e-01 -2.598076e-02 -2.000000e-01
    endloop
  endfacet
  facet normal -2.717581e-01 -6.560819e-01 -7.040626e-01
    outer loop
      vertex  -2.492893e-01 -4.330127e-02 -1.800000e-01
      vertex  -2.392893e-01 -2.598076e-02 -2.000000e-01
      vertex  -2.372303e-01 -4.829629e-02 -1.800000e-01
    endloop
  endfacet
  facet normal -2.717577e-01 -6.560819e-01 -7.040627e-01
    outer loop
      vertex  -2.372303e-01 -4.829629e-02 -1.800000e-01
      vertex  -2.392893e-01 -2.598076e-02 -2.000000e-01
      vertex  -2.320539e-01 -2.897777e-02 -2.000000e-01
    endloop
  endfacet
  facet normal -9.269167e-02 -7.040625e-01 -7.040626e-01
    outer loop
      vertex  -2.372303e-01 -4.829629e-02 -1.800000e-01
      vertex  -2.320539e-01 -2.897777e-02 -2.000000e-01
      vertex  -2.242893e-01 -5.000000e-02 -1.800000e-01
    endloop
  endfacet
  facet normal -9.269173e-02 -7.040625e-01 -7.040627e-01
    outer loop
      vertex  -2.242893e-01 -5.000000e-02 -1.800000e-01
      vertex  -2.320539e-01 -2.897777e-02 -2.000000e-01
      vertex  -2.242893e-01 -3.000000e-02 -2.000000e-01
    endloop
  endfacet
  facet normal -9.659256e-01  2.588195e-01  0.000000e+00
    outer loop
      vertex   2.286603e-01 -5.000000e-03 -2.000000e-01
      vertex   2.300000e-01 -2.449294e-18  2.000000e-01
      vertex   2.300000e-01  0.000000e+00 -2.000000e-01
    endloop
  endfacet
  facet normal -9.659256e-01 -2.588195e-01 -1.584812e-18
    outer loop
      vertex   2.300000e-01  0.000000e+00 -2.000000e-01
      vertex   2.300000e-01 -2.449294e-18  2.000000e-01
      vertex   2.286603e-01  5.000000e-03  2.000000e-01
    endloop
  endfacet
  facet normal -9.659256e-01 -2.588195e-01  0.000000e+00
    outer loop
      vertex   2.300000e-01  0.000000e+00 -2.000000e-01
      vertex   2.286603e-01  5.000000e-03  2.000000e-01
      vertex   2.286603e-01  5.000000e-03 -2.000000e-01
    endloop
  endfacet
  facet normal -7.071061e-01 -7.071075e-01  0.000000e+00
    outer loop
      vertex   2.286603e-01  5.000000e-03 -2.000000e-01
      vertex   2.286603e-01  5.000000e-03  2.000000e-01
      vertex   2.250000e-01  8.660254e-03  2.000000e-01
    endloop
  endfacet
  facet normal -7.071061e-01 -7.071075e-01  0.000000e+00
    outer loop
      vertex   2.286603e-01  5.000000e-03 -2.000000e-01
      vertex   2.250000e-01  8.660254e-03  2.000000e-01
      vertex   2.250000e-01  8.660254e-03 -2.000000e-01
    endloop
  endfacet
  facet normal -2.588192e-01 -9.659258e-01  0.000000e+00
    outer loop
      vertex   2.250000e-01  8.660254e-03 -2.000000e-01
      vertex   2.250000e-01  8.660254e-03  2.000000e-01
      vertex   2.200000e-01  1.000000e-02  2.000000e-01
    endloop
  endfacet
  facet normal -2.588192e-01 -9.659258e-01  0.000000e+00
    outer loop
      vertex   2.250000e-01  8.660254e-03 -2.000000e-01
      vertex   2.200000e-01  1.000000e-02  2.000000e-01
      vertex   2.200000e-01  1.000000e-02 -2.000000e-01
    endloop
  endfacet
  facet normal  2.588192e-01 -9.659258e-01  0.000000e+00
    outer loop
      vertex   2.200000e-01  1.000000e-02 -2.000000e-01
      vertex   2.200000e-01  1.000000e-02  2.000000e-01
      vertex   2.150000e-01  8.660254e-03  2.000000e-01
    endloop
  endfacet
  facet normal  2.588192e-01 -9.659258e-01  0.000000e+00
    outer loop
      vertex   2.200000e-01  1.000000e-02 -2.000000e-01
      vertex   2.150000e-01  8.660254e-03  2.000000e-01
      vertex   2.150000e-01  8.660254e-03 -2.000000e-01
    endloop
  endfacet
  facet normal  7.071061e-01 -7.071075e-01  0.000000e+00
    outer loop
      vertex   2.150000e-01  8.660254e-03 -2.000000e-01
      vertex   2.150000e-01  8.660254e-03  2.000000e-01
      vertex   2.113397e-01  5.000000e-03  2.000000e-01
    endloop
  endfacet
  facet normal  7.071061e-01 -7.071075e-01  0.000000e+00
    outer loop
      vertex   2.150000e-01  8.660254e-03 -2.000000e-01
      vertex   2.113397e-01  5.000000e-03  2.000000e-01
      vertex   2.113397e-01  5.000000e-03 -2.000000e-01
    endloop
  endfacet
  facet normal  9.659256e-01 -2.588195e-01  0.000000e+00
    outer loop
      vertex   2.113397e-01  5.000000e-03 -2.000000e-01
      vertex   2.113397e-01  5.000000e-03  2.000000e-01
      vertex   2.100000e-01  5.665539e-18  2.000000e-01
    endloop
  endfacet
  facet normal  9.659256e-01 -2.588195e-01  0.000000e+00
    outer loop
      vertex   2.113397e-01  5.000000e-03 -2.000000e-01
      vertex   2.100000e-01  5.665539e-18  2.000000e-01
      vertex   2.100000e-01  5.665539e-18 -2.000000e-01
    endloop
  endfacet
  facet normal  9.659256e-01  2.588195e-01 -0.000000e+00
    outer loop
      vertex   2.100000e-01  5.665539e-18 -2.000000e-01
      vertex   2.100000e-01  5.665539e-18  2.000000e-01
      vertex   2.113397e-01 -5.000000e-03  2.000000e-01
    endloop
  endfacet
  facet normal  9.659256e-01  2.588195e-01  0.000000e+00
    outer loop
      vertex   2.100000e-01  5.665539e-18 -2.000000e-01
      vertex   2.113397e-01 -5.000000e-03  2.000000e-01
      vertex   2.113397e-01 -5.000000e-03 -2.000000e-01
    endloop
  endfacet
  facet normal  7.071061e-01  7.071075e-01 -0.000000e+00
    outer loop
      vertex   2.113397e-01 -5.000000e-03 -2.000000e-01
      vertex   2.113397e-01 -5.000000e-03  2.000000e-01
      vertex   2.150000e-01 -8.660254e-03  2.000000e-01
    endloop
  endfacet
  facet normal  7.071061e-01  7.071075e-01  0.000000e+00
    outer loop
      vertex   2.113397e-01 -5.000000e-03 -2.000000e-01
      vertex   2.150000e-01 -8.660254e-03  2.000000e-01
      vertex   2.150000e-01 -8.660254e-03 -2.000000e-01
    endloop
  endfacet
  facet normal  2.588192e-01  9.659258e-01 -0.000000e+00
    outer loop
      vertex   2.150000e-01 -8.660254e-03 -2.000000e-01
      vertex   2.150000e-01 -8.660254e-03  2.000000e-01
      vertex   2.200000e-01 -1.000000e-02  2.000000e-01
    endloop
  endfacet
  facet normal  2.588192e-01  9.659258e-01  0.000000e+00
    outer loop
      vertex   2.150000e-01 -8.660254e-03 -2.000000e-01
      vertex   2.200000e-01 -1.000000e-02  2.000000e-01
      vertex   2.200000e-01 -1.000000e-02 -2.000000e-01
    endloop
  endfacet
  facet normal -2.588192e-01  9.659258e-01  0.000000e+00
    outer loop
      vertex   2.200000e-01 -1.000000e-02 -2.000000e-01
      vertex   2.200000e-01 -1.000000e-02  2.000000e-01
      vertex   2.250000e-01 -8.660254e-03  2.000000e-01
    endloop
  endfacet
  facet normal -2.588192e-01  9.659258e-01  0.000000e+00
    outer loop
      vertex   2.200000e-01 -1.000000e-02 -2.000000e-01
      vertex   2.250000e-01 -8.660254e-03  2.000000e-01
      vertex   2.250000e-01 -8.660254e-03 -2.000000e-01
    endloop
  endfacet
  facet normal -7.071061e-01  7.071075e-01  0.000000e+00
    outer loop
      vertex   2.250000e-01 -8.660254e-03 -2.000000e-01
      vertex   2.250000e-01 -8.660254e-03  2.000000e-01
      vertex   2.286603e-01 -5.000000e-03  2.000000e-01
    endloop
  endfacet
  facet normal -7.071061e-01  7.071075e-01  0.000000e+00
    outer loop
      vertex   2.250000e-01 -8.660254e-03 -2.000000e-01
      vertex   2.286603e-01 -5.000000e-03  2.000000e-01
      vertex   2.286603e-01 -5.000000e-03 -2.000000e-01
    endloop
  endfacet
  facet normal -9.659256e-01  2.588195e-01  0.000000e+00
    outer loop
      vertex   2.286603e-01 -5.000000e-03 -2.000000e-01
      vertex   2.286603e-01 -5.000000e-03  2.000000e-01
      vertex   2.300000e-01 -2.449294e-18  2.000000e-01
    endloop
  endfacet
  facet normal -9.659256e-01  2.588195e-01  0.000000e+00
    outer loop
      vertex  -2.113397e-01 -5.000000e-03 -2.000000e-01
      vertex  -2.100000e-01 -2.449294e-18  2.000000e-01
      vertex  -2.100000e-01  0.000000e+00 -2.000000e-01
    endloop
  endfacet
  facet normal -9.659256e-01 -2.588195e-01 -1.584812e-18
    outer loop
      vertex  -2.100000e-01  0.000000e+00 -2.000000e-01
      vertex  -2.100000e-01 -2.449294e-18  2.000000e-01
      vertex  -2.113397e-01  5.000000e-03  2.000000e-01
    endloop
  endfacet
  facet normal -9.659256e-01 -2.588195e-01  0.000000e+00
    outer loop
      vertex  -2.100000e-01  0.000000e+00 -2.000000e-01
      vertex  -2.113397e-01  5.000000e-03  2.000000e-01
      vertex  -2.113397e-01  5.000000e-03 -2.000000e-01
    endloop
  endfacet
  facet normal -7.071061e-01 -7.071075e-01  0.000000e+00
    outer loop
      vertex  -2.113397e-01  5.000000e-03 -2.000000e-01
      vertex  -2.113397e-01  5.000000e-03  2.000000e-01
      vertex  -2.150000e-01  8.660254e-03  2.000000e-01
    endloop
  endfacet
  facet normal -7.071061e-01 -7.071075e-01  0.000000e+00
    outer loop
      vertex  -2.113397e-01  5.000000e-03 -2.000000e-01
      vertex  -2.150000e-01  8.660254e-03  2.000000e-01
      vertex  -2.150000e-01  8.660254e-03 -2.000000e-01
    endloop
  endfacet
  facet normal -2.588192e-01 -9.659258e-01  0.000000e+00
    outer loop
      vertex  -2.150000e-01  8.660254e-03 -2.000000e-01
      vertex  -2.150000e-01  8.660254e-03  2.000000e-01
      vertex  -2.200000e-01  1.000000e-02  2.000000e-01
    endloop
  endfacet
  facet normal -2.588192e-01 -9.659258e-01  0.000000e+00
    outer loop
      vertex  -2.150000e-01  8.660254e-03 -2.000000e-01
      vertex  -2.200000e-01  1.000000e-02  2.000000e-01
      vertex  -2.200000e-01  1.000000e-02 -2.000000e-01
    endloop
  endfacet
  facet normal  2.588192e-01 -9.659258e-01  0.000000e+00
    outer loop
      vertex  -2.200000e-01  1.000000e-02 -2.000000e-01
      vertex  -2.200000e-01  1.000000e-02  2.000000e-01
      vertex  -2.250000e-01  8.660254e-03  2.000000e-01
    endloop
  endfacet
  facet normal  2.588192e-01 -9.659258e-01  0.000000e+00
    outer loop
      vertex  -2.200000e-01  1.000000e-02 -2.000000e-01
      vertex  -2.250000e-01  8.660254e-03  2.000000e-01
      vertex  -2.250000e-01  8.660254e-03 -2.000000e-01
    endloop
  endfacet
  facet normal  7.071061e-01 -7.071075e-01  0.000000e+00
    outer loop
      vertex  -2.250000e-01  8.660254e-03 -2.000000e-01
      vertex  -2.250000e-01  8.660254e-03  2.000000e-01
      vertex  -2.286603e-01  5.000000e-03  2.000000e-01
    endloop
  endfacet
  facet normal  7.071061e-01 -7.071075e-01  0.000000e+00
    outer loop
      vertex  -2.250000e-01  8.660254e-03 -2.000000e-01
      vertex  -2.286603e-01  5.000000e-03  2.000000e-01
      vertex  -2.286603e-01  5.000000e-03 -2.000000e-01
    endloop
  endfacet
  facet normal  9.659256e-01 -2.588195e-01  0.000000e+00
    outer loop
      vertex  -2.286603e-01  5.000000e-03 -2.000000e-01
      vertex  -2.286603e-01  5.000000e-03  2.000000e-01
      vertex  -2.300000e-01  5.665539e-18  2.000000e-01
    endloop
  endfacet
  facet normal  9.659256e-01 -2.588195e-01  0.000000e+00
    outer loop
      vertex  -2.286603e-01  5.000000e-03 -2.000000e-01
      vertex  -2.300000e-01  5.665539e-18  2.000000e-01
      vertex  -2.300000e-01  5.665539e-18 -2.000000e-01
    endloop
  endfacet
  facet normal  9.659256e-01  2.588195e-01 -0.000000e+00
    outer loop
      vertex  -2.300000e-01  5.665539e-18 -2.000000e-01
      vertex  -2.300000e-01  5.665539e-18  2.000000e-01
      vertex  -2.286603e-01 -5.000000e-03  2.000000e-01
    endloop
  endfacet
  facet normal  9.659256e-01  2.588195e-01  0.000000e+00
    outer loop
      vertex  -2.300000e-01  5.665539e-18 -2.000000e-01
      vertex  -2.286603e-01 -5.000000e-03  2.000000e-01
      vertex  -2.286603e-01 -5.000000e-03 -2.000000e-01
    endloop
  endfacet
  facet normal  7.071061e-01  7.071075e-01 -0.000000e+00
    outer loop
      vertex  -2.286603e-01 -5.000000e-03 -2.000000e-01
      vertex  -2.286603e-01 -5.000000e-03  2.000000e-01
      vertex  -2.250000e-01 -8.660254e-03  2.000000e-01
    endloop
  endfacet
  facet normal  7.071061e-01  7.071075e-01  0.000000e+00
    outer loop
      vertex  -2.286603e-01 -5.000000e-03 -2.000000e-01
      vertex  -2.250000e-01 -8.660254e-03  2.000000e-01
      vertex  -2.250000e-01 -8.660254e-03 -2.000000e-01
    endloop
  endfacet
  facet normal  2.588192e-01  9.659258e-01 -0.000000e+00
    outer loop
      vertex  -2.250000e-01 -8.660254e-03 -2.000000e-01
      vertex  -2.250000e-01 -8.660254e-03  2.000000e-01
      vertex  -2.200000e-01 -1.000000e-02  2.000000e-01
    endloop
  endfacet
  facet normal  2.588192e-01  9.659258e-01  0.000000e+00
    outer loop
      vertex  -2.250000e-01 -8.660254e-03 -2.000000e-01
      vertex  -2.200000e-01 -1.000000e-02  2.000000e-01
      vertex  -2.200000e-01 -1.000000e-02 -2.000000e-01
    endloop
  endfacet
  facet normal -2.588192e-01  9.659258e-01  0.000000e+00
    outer loop
      vertex  -2.200000e-01 -1.000000e-02 -2.000000e-01
      vertex  -2.200000e-01 -1.000000e-02  2.000000e-01
      vertex  -2.150000e-01 -8.660254e-03  2.000000e-01
    endloop
  endfacet
  facet normal -2.588192e-01  9.659258e-01  0.000000e+00
    outer loop
      vertex  -2.200000e-01 -1.000000e-02 -2.000000e-01
      vertex  -2.150000e-01 -8.660254e-03  2.000000e-01
      vertex  -2.150000e-01 -8.660254e-03 -2.000000e-01
    endloop
  endfacet
  facet normal -7.071061e-01  7.071075e-01  0.000000e+00
    outer loop
      vertex  -2.150000e-01 -8.660254e-03 -2.000000e-01
      vertex  -2.150000e-01 -8.660254e-03  2.000000e-01
      vertex  -2.113397e-01 -5.000000e-03  2.000000e-01
    endloop
  endfacet
  facet normal -7.071061e-01  7.071075e-01  0.000000e+00
    outer loop
      vertex  -2.150000e-01 -8.660254e-03 -2.000000e-01
      vertex  -2.113397e-01 -5.000000e-03  2.000000e-01
      vertex  -2.113397e-01 -5.000000e-03 -2.000000e-01
    endloop
  endfacet
  facet normal -9.659256e-01  2.588195e-01  0.000000e+00
    outer loop
      vertex  -2.113397e-01 -5.000000e-03 -2.000000e-01
      vertex  -2.113397e-01 -5.000000e-03  2.000000e-01
      vertex  -2.100000e-01 -2.449294e-18  2.000000e-01
    endloop
  endfacet
  facet normal -1.950922e-01 -9.807849e-01  0.000000e+00
    outer loop
      vertex  -3.008579e-01  1.200000e-01 -2.000000e-01
      vertex  -3.008579e-01  1.200000e-01  2.000000e-01
      vertex  -3.046847e-01  1.207612e-01  2.000000e-01
    endloop
  endfacet
  facet normal -1.950922e-01 -9.807849e-01  0.000000e+00
    outer loop
      vertex  -3.008579e-01  1.200000e-01 -2.000000e-01
      vertex  -3.046847e-01  1.207612e-01  2.000000e-01
      vertex  -3.046847e-01  1.207612e-01 -2.000000e-01
    endloop
  endfacet
  facet normal -5.555711e-01 -8.314691e-01  0.000000e+00
    outer loop
      vertex  -3.046847e-01  1.207612e-01 -2.000000e-01
      vertex  -3.046847e-01  1.207612e-01  2.000000e-01
      vertex  -3.079289e-01  1.229289e-01  2.000000e-01
    endloop
  endfacet
  facet normal -5.555711e-01 -8.314691e-01  0.000000e+00
    outer loop
      vertex  -3.046847e-01  1.207612e-01 -2.000000e-01
      vertex  -3.079289e-01  1.229289e-01  2.000000e-01
      vertex  -3.079289e-01  1.229289e-01 -2.000000e-01
    endloop
  endfacet
  facet normal  7.071068e-01 -7.071068e-01  0.000000e+00
    outer loop
      vertex   3.250000e-01  3.000000e-02  1.800000e-01
      vertex   2.596447e-01 -3.535534e-02  1.800000e-01
      vertex   3.250000e-01  3.000000e-02 -1.800000e-01
    endloop
  endfacet
  facet normal  7.071068e-01 -7.071068e-01  0.000000e+00
    outer loop
      vertex   3.250000e-01  3.000000e-02 -1.800000e-01
      vertex   2.596447e-01 -3.535534e-02  1.800000e-01
      vertex   2.596447e-01 -3.535534e-02 -1.800000e-01
    endloop
  endfacet
  facet normal  7.071071e-01  0.000000e+00  7.071065e-01
    outer loop
      vertex   3.050000e-01  1.300000e-01  2.000000e-01
      vertex   3.050000e-01  3.828427e-02  2.000000e-01
      vertex   3.250000e-01  1.300000e-01  1.800000e-01
    endloop
  endfacet
  facet normal  7.071070e-01  0.000000e+00  7.071065e-01
    outer loop
      vertex   3.250000e-01  1.300000e-01  1.800000e-01
      vertex   3.050000e-01  3.828427e-02  2.000000e-01
      vertex   3.250000e-01  3.000000e-02  1.800000e-01
    endloop
  endfacet
  facet normal  7.071071e-01  0.000000e+00 -7.071065e-01
    outer loop
      vertex   3.050000e-01  3.828427e-02 -2.000000e-01
      vertex   3.050000e-01  1.300000e-01 -2.000000e-01
      vertex   3.250000e-01  3.000000e-02 -1.800000e-01
    endloop
  endfacet
  facet normal  7.071070e-01  0.000000e+00 -7.071065e-01
    outer loop
      vertex   3.250000e-01  3.000000e-02 -1.800000e-01
      vertex   3.050000e-01  1.300000e-01 -2.000000e-01
      vertex   3.250000e-01  1.300000e-01 -1.800000e-01
    endloop
  endfacet
  facet normal  0.000000e+00 -0.000000e+00  1.000000e+00
    outer loop
      vertex  -2.850000e-01  1.200000e-01  2.000000e-01
      vertex   3.050000e-01  1.300000e-01  2.000000e-01
      vertex  -3.150000e-01  1.300000e-01  2.000000e-01
    endloop
  endfacet
  facet normal  0.000000e+00  0.000000e+00  1.000000e+00
    outer loop
      vertex  -2.850000e-01  1.200000e-01  2.000000e-01
      vertex  -3.150000e-01  1.300000e-01  2.000000e-01
      vertex  -3.008579e-01  1.200000e-01  2.000000e-01
    endloop
  endfacet
  facet normal  0.000000e+00  0.000000e+00  1.000000e+00
    outer loop
      vertex  -3.008579e-01  1.200000e-01  2.000000e-01
      vertex  -3.150000e-01  1.300000e-01  2.000000e-01
      vertex  -3.079289e-01  1.229289e-01  2.000000e-01
    endloop
  endfacet
  facet normal  0.000000e+00  0.000000e+00  1.000000e+00
    outer loop
      vertex  -3.008579e-01  1.200000e-01  2.000000e-01
      vertex  -3.079289e-01  1.229289e-01  2.000000e-01
      vertex  -3.046847e-01  1.207612e-01  2.000000e-01
    endloop
  endfacet
  facet normal  0.000000e+00  0.000000e+00  1.000000e+00
    outer loop
      vertex   2.113397e-01 -5.000000e-03  2.000000e-01
      vertex  -2.242893e-01 -3.000000e-02  2.000000e-01
      vertex   2.150000e-01 -8.660254e-03  2.000000e-01
    endloop
  endfacet
  facet normal  0.000000e+00  0.000000e+00  1.000000e+00
    outer loop
      vertex   2.150000e-01 -8.660254e-03  2.000000e-01
      vertex  -2.242893e-01 -3.000000e-02  2.000000e-01
      vertex   2.242893e-01 -3.000000e-02  2.000000e-01
    endloop
  endfacet
  facet normal  0.000000e+00  0.000000e+00  1.000000e+00
    outer loop
      vertex   2.150000e-01 -8.660254e-03  2.000000e-01
      vertex   2.242893e-01 -3.000000e-02  2.000000e-01
      vertex   2.200000e-01 -1.000000e-02  2.000000e-01
    endloop
  endfacet
  facet normal  0.000000e+00  0.000000e+00  1.000000e+00
    outer loop
      vertex   2.200000e-01 -1.000000e-02  2.000000e-01
      vertex   2.242893e-01 -3.000000e-02  2.000000e-01
      vertex   2.320539e-01 -2.897777e-02  2.000000e-01
    endloop
  endfacet
  facet normal -0.000000e+00  0.000000e+00  1.000000e+00
    outer loop
      vertex   2.200000e-01 -1.000000e-02  2.000000e-01
      vertex   2.320539e-01 -2.897777e-02  2.000000e-01
      vertex   2.250000e-01 -8.660254e-03  2.000000e-01
    endloop
  endfacet
  facet normal  0.000000e+00  0.000000e+00  1.000000e+00
    outer loop
      vertex   2.250000e-01 -8.660254e-03  2.000000e-01
      vertex   2.320539e-01 -2.897777e-02  2.000000e-01
      vertex   2.392893e-01 -2.598076e-02  2.000000e-01
    endloop
  endfacet
  facet normal -0.000000e+00  0.000000e+00  1.000000e+00
    outer loop
      vertex   2.250000e-01 -8.660254e-03  2.000000e-01
      vertex   2.392893e-01 -2.598076e-02  2.000000e-01
      vertex   2.286603e-01 -5.000000e-03  2.000000e-01
    endloop
  endfacet
  facet normal  0.000000e+00  0.000000e+00  1.000000e+00
    outer loop
      vertex   2.286603e-01 -5.000000e-03  2.000000e-01
      vertex   2.392893e-01 -2.598076e-02  2.000000e-01
      vertex   2.455025e-01 -2.121320e-02  2.000000e-01
    endloop
  endfacet
  facet normal -0.000000e+00  0.000000e+00  1.000000e+00
    outer loop
      vertex   2.286603e-01 -5.000000e-03  2.000000e-01
      vertex   2.455025e-01 -2.121320e-02  2.000000e-01
      vertex   2.300000e-01 -2.449294e-18  2.000000e-01
    endloop
  endfacet
  facet normal -0.000000e+00  0.000000e+00  1.000000e+00
    outer loop
      vertex   2.300000e-01 -2.449294e-18  2.000000e-01
      vertex   2.455025e-01 -2.121320e-02  2.000000e-01
      vertex   3.050000e-01  3.828427e-02  2.000000e-01
    endloop
  endfacet
  facet normal  0.000000e+00  0.000000e+00  1.000000e+00
    outer loop
      vertex   3.050000e-01  1.300000e-01  2.000000e-01
      vertex   2.250000e-01  8.660254e-03  2.000000e-01
      vertex   3.050000e-01  3.828427e-02  2.000000e-01
    endloop
  endfacet
  facet normal  0.000000e+00  0.000000e+00  1.000000e+00
    outer loop
      vertex   3.050000e-01  3.828427e-02  2.000000e-01
      vertex   2.250000e-01  8.660254e-03  2.000000e-01
      vertex   2.286603e-01  5.000000e-03  2.000000e-01
    endloop
  endfacet
  facet normal  0.000000e+00  0.000000e+00  1.000000e+00
    outer loop
      vertex   3.050000e-01  3.828427e-02  2.000000e-01
      vertex   2.286603e-01  5.000000e-03  2.000000e-01
      vertex   2.300000e-01 -2.449294e-18  2.000000e-01
    endloop
  endfacet
  facet normal  0.000000e+00  0.000000e+00  1.000000e+00
    outer loop
      vertex  -2.286603e-01 -5.000000e-03  2.000000e-01
      vertex  -2.300000e-01  6.938894e-18  2.000000e-01
      vertex  -2.650000e-01  1.000000e-01  2.000000e-01
    endloop
  endfacet
  facet normal  0.000000e+00  0.000000e+00  1.000000e+00
    outer loop
      vertex  -2.650000e-01  1.000000e-01  2.000000e-01
      vertex  -2.300000e-01  6.938894e-18  2.000000e-01
      vertex  -2.286603e-01  5.000000e-03  2.000000e-01
    endloop
  endfacet
  facet normal  0.000000e+00  0.000000e+00  1.000000e+00
    outer loop
      vertex  -2.650000e-01  1.000000e-01  2.000000e-01
      vertex  -2.286603e-01  5.000000e-03  2.000000e-01
      vertex  -2.250000e-01  8.660254e-03  2.000000e-01
    endloop
  endfacet
  facet normal -0.000000e+00 -0.000000e+00  1.000000e+00
    outer loop
      vertex  -2.650000e-01  1.000000e-01  2.000000e-01
      vertex   2.113397e-01  5.000000e-03  2.000000e-01
      vertex  -2.850000e-01  1.200000e-01  2.000000e-01
    endloop
  endfacet
  facet normal  0.000000e+00  0.000000e+00  1.000000e+00
    outer loop
      vertex  -2.850000e-01  1.200000e-01  2.000000e-01
      vertex   2.113397e-01  5.000000e-03  2.000000e-01
      vertex   2.150000e-01  8.660254e-03  2.000000e-01
    endloop
  endfacet
  facet normal -0.000000e+00  0.000000e+00  1.000000e+00
    outer loop
      vertex  -2.850000e-01  1.200000e-01  2.000000e-01
      vertex   2.150000e-01  8.660254e-03  2.000000e-01
      vertex   3.050000e-01  1.300000e-01  2.000000e-01
    endloop
  endfacet
  facet normal  0.000000e+00  0.000000e+00  1.000000e+00
    outer loop
      vertex   3.050000e-01  1.300000e-01  2.000000e-01
      vertex   2.150000e-01  8.660254e-03  2.000000e-01
      vertex   2.200000e-01  1.000000e-02  2.000000e-01
    endloop
  endfacet
  facet normal  0.000000e+00  0.000000e+00  1.000000e+00
    outer loop
      vertex   3.050000e-01  1.300000e-01  2.000000e-01
      vertex   2.200000e-01  1.000000e-02  2.000000e-01
      vertex   2.250000e-01  8.660254e-03  2.000000e-01
    endloop
  endfacet
  facet normal  0.000000e+00 -0.000000e+00  1.000000e+00
    outer loop
      vertex  -2.242893e-01 -3.000000e-02  2.000000e-01
      vertex  -2.200000e-01 -1.000000e-02  2.000000e-01
      vertex  -2.320539e-01 -2.897777e-02  2.000000e-01
    endloop
  endfacet
  facet normal  0.000000e+00  0.000000e+00  1.000000e+00
    outer loop
      vertex  -2.320539e-01 -2.897777e-02  2.000000e-01
      vertex  -2.200000e-01 -1.000000e-02  2.000000e-01
      vertex  -2.250000e-01 -8.660254e-03  2.000000e-01
    endloop
  endfacet
  facet normal  0.000000e+00 -0.000000e+00  1.000000e+00
    outer loop
      vertex  -2.320539e-01 -2.897777e-02  2.000000e-01
      vertex  -2.250000e-01 -8.660254e-03  2.000000e-01
      vertex  -2.392893e-01 -2.598076e-02  2.000000e-01
    endloop
  endfacet
  facet normal -0.000000e+00  0.000000e+00  1.000000e+00
    outer loop
      vertex  -3.050000e-01  9.910180e-02  2.000000e-01
      vertex  -3.050000e-01  3.828427e-02  2.000000e-01
      vertex  -3.047065e-01  9.922975e-02  2.000000e-01
    endloop
  endfacet
  facet normal -0.000000e+00  0.000000e+00  1.000000e+00
    outer loop
      vertex  -3.047065e-01  9.922975e-02  2.000000e-01
      vertex  -3.050000e-01  3.828427e-02  2.000000e-01
      vertex  -3.008579e-01  1.000000e-01  2.000000e-01
    endloop
  endfacet
  facet normal  0.000000e+00 -0.000000e+00  1.000000e+00
    outer loop
      vertex  -2.250000e-01  8.660254e-03  2.000000e-01
      vertex  -2.200000e-01  1.000000e-02  2.000000e-01
      vertex  -2.650000e-01  1.000000e-01  2.000000e-01
    endloop
  endfacet
  facet normal  0.000000e+00  0.000000e+00  1.000000e+00
    outer loop
      vertex  -2.650000e-01  1.000000e-01  2.000000e-01
      vertex  -2.200000e-01  1.000000e-02  2.000000e-01
      vertex  -2.150000e-01  8.660254e-03  2.000000e-01
    endloop
  endfacet
  facet normal  0.000000e+00  0.000000e+00  1.000000e+00
    outer loop
      vertex  -2.650000e-01  1.000000e-01  2.000000e-01
      vertex  -2.150000e-01  8.660254e-03  2.000000e-01
      vertex   2.113397e-01  5.000000e-03  2.000000e-01
    endloop
  endfacet
  facet normal  0.000000e+00  0.000000e+00  1.000000e+00
    outer loop
      vertex   2.113397e-01  5.000000e-03  2.000000e-01
      vertex  -2.150000e-01  8.660254e-03  2.000000e-01
      vertex  -2.113397e-01  5.000000e-03  2.000000e-01
    endloop
  endfacet
  facet normal  0.000000e+00  0.000000e+00  1.000000e+00
    outer loop
      vertex   2.113397e-01  5.000000e-03  2.000000e-01
      vertex  -2.113397e-01  5.000000e-03  2.000000e-01
      vertex   2.100000e-01  6.938894e-18  2.000000e-01
    endloop
  endfacet
  facet normal  0.000000e+00  0.000000e+00  1.000000e+00
    outer loop
      vertex   2.100000e-01  6.938894e-18  2.000000e-01
      vertex  -2.113397e-01  5.000000e-03  2.000000e-01
      vertex  -2.100000e-01 -2.449294e-18  2.000000e-01
    endloop
  endfacet
  facet normal  0.000000e+00  0.000000e+00  1.000000e+00
    outer loop
      vertex   2.100000e-01  6.938894e-18  2.000000e-01
      vertex  -2.100000e-01 -2.449294e-18  2.000000e-01
      vertex   2.113397e-01 -5.000000e-03  2.000000e-01
    endloop
  endfacet
  facet normal  0.000000e+00  0.000000e+00  1.000000e+00
    outer loop
      vertex   2.113397e-01 -5.000000e-03  2.000000e-01
      vertex  -2.100000e-01 -2.449294e-18  2.000000e-01
      vertex  -2.113397e-01 -5.000000e-03  2.000000e-01
    endloop
  endfacet
  facet normal  0.000000e+00  0.000000e+00  1.000000e+00
    outer loop
      vertex   2.113397e-01 -5.000000e-03  2.000000e-01
      vertex  -2.113397e-01 -5.000000e-03  2.000000e-01
      vertex  -2.242893e-01 -3.000000e-02  2.000000e-01
    endloop
  endfacet
  facet normal  0.000000e+00  0.000000e+00  1.000000e+00
    outer loop
      vertex  -2.242893e-01 -3.000000e-02  2.000000e-01
      vertex  -2.113397e-01 -5.000000e-03  2.000000e-01
      vertex  -2.150000e-01 -8.660254e-03  2.000000e-01
    endloop
  endfacet
  facet normal  0.000000e+00  0.000000e+00  1.000000e+00
    outer loop
      vertex  -2.242893e-01 -3.000000e-02  2.000000e-01
      vertex  -2.150000e-01 -8.660254e-03  2.000000e-01
      vertex  -2.200000e-01 -1.000000e-02  2.000000e-01
    endloop
  endfacet
  facet normal  0.000000e+00 -0.000000e+00  1.000000e+00
    outer loop
      vertex  -2.392893e-01 -2.598076e-02  2.000000e-01
      vertex  -2.250000e-01 -8.660254e-03  2.000000e-01
      vertex  -2.455025e-01 -2.121320e-02  2.000000e-01
    endloop
  endfacet
  facet normal  0.000000e+00  0.000000e+00  1.000000e+00
    outer loop
      vertex  -2.455025e-01 -2.121320e-02  2.000000e-01
      vertex  -2.250000e-01 -8.660254e-03  2.000000e-01
      vertex  -2.286603e-01 -5.000000e-03  2.000000e-01
    endloop
  endfacet
  facet normal  0.000000e+00 -0.000000e+00  1.000000e+00
    outer loop
      vertex  -2.455025e-01 -2.121320e-02  2.000000e-01
      vertex  -2.286603e-01 -5.000000e-03  2.000000e-01
      vertex  -3.050000e-01  3.828427e-02  2.000000e-01
    endloop
  endfacet
  facet normal -0.000000e+00  0.000000e+00  1.000000e+00
    outer loop
      vertex  -3.050000e-01  3.828427e-02  2.000000e-01
      vertex  -2.286603e-01 -5.000000e-03  2.000000e-01
      vertex  -2.650000e-01  1.000000e-01  2.000000e-01
    endloop
  endfacet
  facet normal  0.000000e+00  0.000000e+00  1.000000e+00
    outer loop
      vertex  -3.050000e-01  3.828427e-02  2.000000e-01
      vertex  -2.650000e-01  1.000000e-01  2.000000e-01
      vertex  -3.008579e-01  1.000000e-01  2.000000e-01
    endloop
  endfacet
  facet normal  0.000000e+00  0.000000e+00 -1.000000e+00
    outer loop
      vertex   2.250000e-01 -8.660254e-03 -2.000000e-01
      vertex   2.286603e-01 -5.000000e-03 -2.000000e-01
      vertex   2.455025e-01 -2.121320e-02 -2.000000e-01
    endloop
  endfacet
  facet normal -0.000000e+00  0.000000e+00 -1.000000e+00
    outer loop
      vertex   2.150000e-01  8.660254e-03 -2.000000e-01
      vertex  -2.150000e-01 -8.660254e-03 -2.000000e-01
      vertex   2.200000e-01  1.000000e-02 -2.000000e-01
    endloop
  endfacet
  facet normal  0.000000e+00  0.000000e+00 -1.000000e+00
    outer loop
      vertex   2.200000e-01  1.000000e-02 -2.000000e-01
      vertex  -2.150000e-01 -8.660254e-03 -2.000000e-01
      vertex  -2.113397e-01 -5.000000e-03 -2.000000e-01
    endloop
  endfacet
  facet normal  0.000000e+00  0.000000e+00 -1.000000e+00
    outer loop
      vertex   2.150000e-01  8.660254e-03 -2.000000e-01
      vertex   2.113397e-01  5.000000e-03 -2.000000e-01
      vertex  -2.150000e-01 -8.660254e-03 -2.000000e-01
    endloop
  endfacet
  facet normal  0.000000e+00  0.000000e+00 -1.000000e+00
    outer loop
      vertex  -2.150000e-01 -8.660254e-03 -2.000000e-01
      vertex   2.113397e-01  5.000000e-03 -2.000000e-01
      vertex   2.100000e-01  6.938894e-18 -2.000000e-01
    endloop
  endfacet
  facet normal  0.000000e+00 -0.000000e+00 -1.000000e+00
    outer loop
      vertex  -2.150000e-01 -8.660254e-03 -2.000000e-01
      vertex   2.100000e-01  6.938894e-18 -2.000000e-01
      vertex  -2.200000e-01 -1.000000e-02 -2.000000e-01
    endloop
  endfacet
  facet normal  0.000000e+00  0.000000e+00 -1.000000e+00
    outer loop
      vertex  -2.200000e-01 -1.000000e-02 -2.000000e-01
      vertex   2.100000e-01  6.938894e-18 -2.000000e-01
      vertex   2.113397e-01 -5.000000e-03 -2.000000e-01
    endloop
  endfacet
  facet normal  0.000000e+00  0.000000e+00 -1.000000e+00
    outer loop
      vertex  -3.046847e-01  1.207612e-01 -2.000000e-01
      vertex  -3.079289e-01  1.229289e-01 -2.000000e-01
      vertex  -3.008579e-01  1.200000e-01 -2.000000e-01
    endloop
  endfacet
  facet normal  0.000000e+00  0.000000e+00 -1.000000e+00
    outer loop
      vertex  -3.008579e-01  1.200000e-01 -2.000000e-01
      vertex  -3.079289e-01  1.229289e-01 -2.000000e-01
      vertex  -3.150000e-01  1.300000e-01 -2.000000e-01
    endloop
  endfacet
  facet normal  0.000000e+00  0.000000e+00 -1.000000e+00
    outer loop
      vertex  -3.008579e-01  1.200000e-01 -2.000000e-01
      vertex  -3.150000e-01  1.300000e-01 -2.000000e-01
      vertex  -2.850000e-01  1.200000e-01 -2.000000e-01
    endloop
  endfacet
  facet normal  0.000000e+00  0.000000e+00 -1.000000e+00
    outer loop
      vertex  -2.113397e-01 -5.000000e-03 -2.000000e-01
      vertex  -2.100000e-01  0.000000e+00 -2.000000e-01
      vertex   2.200000e-01  1.000000e-02 -2.000000e-01
    endloop
  endfacet
  facet normal  0.000000e+00  0.000000e+00 -1.000000e+00
    outer loop
      vertex   2.200000e-01  1.000000e-02 -2.000000e-01
      vertex  -2.100000e-01  0.000000e+00 -2.000000e-01
      vertex  -2.113397e-01  5.000000e-03 -2.000000e-01
    endloop
  endfacet
  facet normal  0.000000e+00  0.000000e+00 -1.000000e+00
    outer loop
      vertex   2.200000e-01  1.000000e-02 -2.000000e-01
      vertex  -2.113397e-01  5.000000e-03 -2.000000e-01
      vertex  -2.150000e-01  8.660254e-03 -2.000000e-01
    endloop
  endfacet
  facet normal  0.000000e+00  0.000000e+00 -1.000000e+00
    outer loop
      vertex   2.455025e-01 -2.121320e-02 -2.000000e-01
      vertex   2.286603e-01 -5.000000e-03 -2.000000e-01
      vertex   3.050000e-01  3.828427e-02 -2.000000e-01
    endloop
  endfacet
  facet normal  0.000000e+00  0.000000e+00 -1.000000e+00
    outer loop
      vertex  -3.150000e-01  1.300000e-01 -2.000000e-01
      vertex   3.050000e-01  1.300000e-01 -2.000000e-01
      vertex  -2.850000e-01  1.200000e-01 -2.000000e-01
    endloop
  endfacet
  facet normal  0.000000e+00  0.000000e+00 -1.000000e+00
    outer loop
      vertex  -2.850000e-01  1.200000e-01 -2.000000e-01
      vertex   3.050000e-01  1.300000e-01 -2.000000e-01
      vertex   2.200000e-01  1.000000e-02 -2.000000e-01
    endloop
  endfacet
  facet normal  0.000000e+00  0.000000e+00 -1.000000e+00
    outer loop
      vertex  -2.850000e-01  1.200000e-01 -2.000000e-01
      vertex   2.200000e-01  1.000000e-02 -2.000000e-01
      vertex  -2.650000e-01  1.000000e-01 -2.000000e-01
    endloop
  endfacet
  facet normal  0.000000e+00  0.000000e+00 -1.000000e+00
    outer loop
      vertex  -2.650000e-01  1.000000e-01 -2.000000e-01
      vertex   2.200000e-01  1.000000e-02 -2.000000e-01
      vertex  -2.150000e-01  8.660254e-03 -2.000000e-01
    endloop
  endfacet
  facet normal  0.000000e+00  0.000000e+00 -1.000000e+00
    outer loop
      vertex  -2.650000e-01  1.000000e-01 -2.000000e-01
      vertex  -2.150000e-01  8.660254e-03 -2.000000e-01
      vertex  -2.200000e-01  1.000000e-02 -2.000000e-01
    endloop
  endfacet
  facet normal  0.000000e+00  0.000000e+00 -1.000000e+00
    outer loop
      vertex   2.286603e-01 -5.000000e-03 -2.000000e-01
      vertex   2.300000e-01  0.000000e+00 -2.000000e-01
      vertex   3.050000e-01  3.828427e-02 -2.000000e-01
    endloop
  endfacet
  facet normal  0.000000e+00  0.000000e+00 -1.000000e+00
    outer loop
      vertex   3.050000e-01  3.828427e-02 -2.000000e-01
      vertex   2.300000e-01  0.000000e+00 -2.000000e-01
      vertex   2.286603e-01  5.000000e-03 -2.000000e-01
    endloop
  endfacet
  facet normal -0.000000e+00  0.000000e+00 -1.000000e+00
    outer loop
      vertex   3.050000e-01  3.828427e-02 -2.000000e-01
      vertex   2.286603e-01  5.000000e-03 -2.000000e-01
      vertex   3.050000e-01  1.300000e-01 -2.000000e-01
    endloop
  endfacet
  facet normal  0.000000e+00  0.000000e+00 -1.000000e+00
    outer loop
      vertex   3.050000e-01  1.300000e-01 -2.000000e-01
      vertex   2.286603e-01  5.000000e-03 -2.000000e-01
      vertex   2.250000e-01  8.660254e-03 -2.000000e-01
    endloop
  endfacet
  facet normal  0.000000e+00  0.000000e+00 -1.000000e+00
    outer loop
      vertex   3.050000e-01  1.300000e-01 -2.000000e-01
      vertex   2.250000e-01  8.660254e-03 -2.000000e-01
      vertex   2.200000e-01  1.000000e-02 -2.000000e-01
    endloop
  endfacet
  facet normal  0.000000e+00  0.000000e+00 -1.000000e+00
    outer loop
      vertex  -3.050000e-01  9.910180e-02 -2.000000e-01
      vertex  -3.047065e-01  9.922975e-02 -2.000000e-01
      vertex  -3.050000e-01  3.828427e-02 -2.000000e-01
    endloop
  endfacet
  facet normal  0.000000e+00  0.000000e+00 -1.000000e+00
    outer loop
      vertex  -3.050000e-01  3.828427e-02 -2.000000e-01
      vertex  -3.047065e-01  9.922975e-02 -2.000000e-01
      vertex  -3.008579e-01  1.000000e-01 -2.000000e-01
    endloop
  endfacet
  facet normal  0.000000e+00  0.000000e+00 -1.000000e+00
    outer loop
      vertex  -3.050000e-01  3.828427e-02 -2.000000e-01
      vertex  -3.008579e-01  1.000000e-01 -2.000000e-01
      vertex  -2.650000e-01  1.000000e-01 -2.000000e-01
    endloop
  endfacet
  facet normal  0.000000e+00  0.000000e+00 -1.000000e+00
    outer loop
      vertex   2.242893e-01 -3.000000e-02 -2.000000e-01
      vertex   2.200000e-01 -1.000000e-02 -2.000000e-01
      vertex   2.320539e-01 -2.897777e-02 -2.000000e-01
    endloop
  endfacet
  facet normal  0.000000e+00  0.000000e+00 -1.000000e+00
    outer loop
      vertex   2.320539e-01 -2.897777e-02 -2.000000e-01
      vertex   2.200000e-01 -1.000000e-02 -2.000000e-01
      vertex   2.250000e-01 -8.660254e-03 -2.000000e-01
    endloop
  endfacet
  facet normal  0.000000e+00  0.000000e+00 -1.000000e+00
    outer loop
      vertex   2.320539e-01 -2.897777e-02 -2.000000e-01
      vertex   2.250000e-01 -8.660254e-03 -2.000000e-01
      vertex   2.392893e-01 -2.598076e-02 -2.000000e-01
    endloop
  endfacet
  facet normal  0.000000e+00  0.000000e+00 -1.000000e+00
    outer loop
      vertex   2.392893e-01 -2.598076e-02 -2.000000e-01
      vertex   2.250000e-01 -8.660254e-03 -2.000000e-01
      vertex   2.455025e-01 -2.121320e-02 -2.000000e-01
    endloop
  endfacet
  facet normal -0.000000e+00  0.000000e+00 -1.000000e+00
    outer loop
      vertex  -2.200000e-01  1.000000e-02 -2.000000e-01
      vertex  -2.250000e-01  8.660254e-03 -2.000000e-01
      vertex  -2.650000e-01  1.000000e-01 -2.000000e-01
    endloop
  endfacet
  facet normal  0.000000e+00  0.000000e+00 -1.000000e+00
    outer loop
      vertex  -2.650000e-01  1.000000e-01 -2.000000e-01
      vertex  -2.250000e-01  8.660254e-03 -2.000000e-01
      vertex  -2.286603e-01  5.000000e-03 -2.000000e-01
    endloop
  endfacet
  facet normal  0.000000e+00 -0.000000e+00 -1.000000e+00
    outer loop
      vertex  -2.650000e-01  1.000000e-01 -2.000000e-01
      vertex  -2.286603e-01  5.000000e-03 -2.000000e-01
      vertex  -3.050000e-01  3.828427e-02 -2.000000e-01
    endloop
  endfacet
  facet normal  0.000000e+00  0.000000e+00 -1.000000e+00
    outer loop
      vertex  -3.050000e-01  3.828427e-02 -2.000000e-01
      vertex  -2.286603e-01  5.000000e-03 -2.000000e-01
      vertex  -2.300000e-01  6.938894e-18 -2.000000e-01
    endloop
  endfacet
  facet normal  0.000000e+00  0.000000e+00 -1.000000e+00
    outer loop
      vertex  -3.050000e-01  3.828427e-02 -2.000000e-01
      vertex  -2.300000e-01  6.938894e-18 -2.000000e-01
      vertex  -2.455025e-01 -2.121320e-02 -2.000000e-01
    endloop
  endfacet
  facet normal  0.000000e+00  0.000000e+00 -1.000000e+00
    outer loop
      vertex  -2.455025e-01 -2.121320e-02 -2.000000e-01
      vertex  -2.300000e-01  6.938894e-18 -2.000000e-01
      vertex  -2.286603e-01 -5.000000e-03 -2.000000e-01
    endloop
  endfacet
  facet normal  0.000000e+00  0.000000e+00 -1.000000e+00
    outer loop
      vertex  -2.455025e-01 -2.121320e-02 -2.000000e-01
      vertex  -2.286603e-01 -5.000000e-03 -2.000000e-01
      vertex  -2.392893e-01 -2.598076e-02 -2.000000e-01
    endloop
  endfacet
  facet normal  0.000000e+00  0.000000e+00 -1.000000e+00
    outer loop
      vertex  -2.392893e-01 -2.598076e-02 -2.000000e-01
      vertex  -2.286603e-01 -5.000000e-03 -2.000000e-01
      vertex  -2.250000e-01 -8.660254e-03 -2.000000e-01
    endloop
  endfacet
  facet normal  0.000000e+00  0.000000e+00 -1.000000e+00
    outer loop
      vertex  -2.392893e-01 -2.598076e-02 -2.000000e-01
      vertex  -2.250000e-01 -8.660254e-03 -2.000000e-01
      vertex  -2.320539e-01 -2.897777e-02 -2.000000e-01
    endloop
  endfacet
  facet normal  0.000000e+00  0.000000e+00 -1.000000e+00
    outer loop
      vertex  -2.320539e-01 -2.897777e-02 -2.000000e-01
      vertex  -2.250000e-01 -8.660254e-03 -2.000000e-01
      vertex  -2.200000e-01 -1.000000e-02 -2.000000e-01
    endloop
  endfacet
  facet normal  0.000000e+00  0.000000e+00 -1.000000e+00
    outer loop
      vertex  -2.320539e-01 -2.897777e-02 -2.000000e-01
      vertex  -2.200000e-01 -1.000000e-02 -2.000000e-01
      vertex  -2.242893e-01 -3.000000e-02 -2.000000e-01
    endloop
  endfacet
  facet normal  0.000000e+00  0.000000e+00 -1.000000e+00
    outer loop
      vertex  -2.242893e-01 -3.000000e-02 -2.000000e-01
      vertex  -2.200000e-01 -1.000000e-02 -2.000000e-01
      vertex   2.113397e-01 -5.000000e-03 -2.000000e-01
    endloop
  endfacet
  facet normal  0.000000e+00  0.000000e+00 -1.000000e+00
    outer loop
      vertex  -2.242893e-01 -3.000000e-02 -2.000000e-01
      vertex   2.113397e-01 -5.000000e-03 -2.000000e-01
      vertex   2.242893e-01 -3.000000e-02 -2.000000e-01
    endloop
  endfacet
  facet normal  0.000000e+00  0.000000e+00 -1.000000e+00
    outer loop
      vertex   2.242893e-01 -3.000000e-02 -2.000000e-01
      vertex   2.113397e-01 -5.000000e-03 -2.000000e-01
      vertex   2.150000e-01 -8.660254e-03 -2.000000e-01
    endloop
  endfacet
  facet normal  0.000000e+00  0.000000e+00 -1.000000e+00
    outer loop
      vertex   2.242893e-01 -3.000000e-02 -2.000000e-01
      vertex   2.150000e-01 -8.660254e-03 -2.000000e-01
      vertex   2.200000e-01 -1.000000e-02 -2.000000e-01
    endloop
  endfacet
  facet normal -7.071073e-01 -7.071063e-01 -0.000000e+00
    outer loop
      vertex  -3.250000e-01  1.400000e-01  1.900000e-01
      vertex  -3.250000e-01  1.400000e-01 -1.900000e-01
      vertex  -3.150000e-01  1.300000e-01  2.000000e-01
    endloop
  endfacet
  facet normal -7.071072e-01 -7.071063e-01 -0.000000e+00
    outer loop
      vertex  -3.150000e-01  1.300000e-01  2.000000e-01
      vertex  -3.250000e-01  1.400000e-01 -1.900000e-01
      vertex  -3.150000e-01  1.300000e-01 -2.000000e-01
    endloop
  endfacet
  facet normal -7.071061e-01 -7.071075e-01 -0.000000e+00
    outer loop
      vertex  -3.150000e-01  1.300000e-01  2.000000e-01
      vertex  -3.150000e-01  1.300000e-01 -2.000000e-01
      vertex  -3.079289e-01  1.229289e-01  2.000000e-01
    endloop
  endfacet
  facet normal -7.071061e-01 -7.071075e-01 -0.000000e+00
    outer loop
      vertex  -3.079289e-01  1.229289e-01  2.000000e-01
      vertex  -3.150000e-01  1.300000e-01 -2.000000e-01
      vertex  -3.079289e-01  1.229289e-01 -2.000000e-01
    endloop
  endfacet
  facet normal  5.773507e-01  5.773498e-01  5.773503e-01
    outer loop
      vertex   3.250000e-01  1.300000e-01  1.800000e-01
      vertex   3.050000e-01  1.500000e-01  1.800000e-01
      vertex   3.050000e-01  1.300000e-01  2.000000e-01
    endloop
  endfacet
  facet normal  1.000000e+00 -0.000000e+00  0.000000e+00
    outer loop
      vertex   3.250000e-01  3.000000e-02  1.800000e-01
      vertex   3.250000e-01  3.000000e-02 -1.800000e-01
      vertex   3.250000e-01  1.300000e-01  1.800000e-01
    endloop
  endfacet
  facet normal  1.000000e+00  0.000000e+00  0.000000e+00
    outer loop
      vertex   3.250000e-01  1.300000e-01  1.800000e-01
      vertex   3.250000e-01  3.000000e-02 -1.800000e-01
      vertex   3.250000e-01  1.300000e-01 -1.800000e-01
    endloop
  endfacet
  facet normal  5.773507e-01  5.773498e-01 -5.773503e-01
    outer loop
      vertex   3.250000e-01  1.300000e-01 -1.800000e-01
      vertex   3.050000e-01  1.300000e-01 -2.000000e-01
      vertex   3.050000e-01  1.500000e-01 -1.800000e-01
    endloop
  endfacet
  facet normal -0.000000e+00  7.071068e-01  7.071068e-01
    outer loop
      vertex  -3.150000e-01  1.300000e-01  2.000000e-01
      vertex   3.050000e-01  1.300000e-01  2.000000e-01
      vertex  -3.250000e-01  1.400000e-01  1.900000e-01
    endloop
  endfacet
  facet normal -8.166474e-09  7.071065e-01  7.071071e-01
    outer loop
      vertex  -3.250000e-01  1.400000e-01  1.900000e-01
      vertex   3.050000e-01  1.300000e-01  2.000000e-01
      vertex   3.050000e-01  1.500000e-01  1.800000e-01
    endloop
  endfacet
  facet normal  0.000000e+00  7.071063e-01  7.071074e-01
    outer loop
      vertex  -3.250000e-01  1.400000e-01  1.900000e-01
      vertex   3.050000e-01  1.500000e-01  1.800000e-01
      vertex  -3.250000e-01  1.500000e-01  1.800000e-01
    endloop
  endfacet
  facet normal -1.000000e+00 -0.000000e+00 -0.000000e+00
    outer loop
      vertex  -3.250000e-01  1.500000e-01  1.800000e-01
      vertex  -3.250000e-01  1.500000e-01 -1.800000e-01
      vertex  -3.250000e-01  1.400000e-01  1.900000e-01
    endloop
  endfacet
  facet normal -1.000000e+00  0.000000e+00  0.000000e+00
    outer loop
      vertex  -3.250000e-01  1.400000e-01  1.900000e-01
      vertex  -3.250000e-01  1.500000e-01 -1.800000e-01
      vertex  -3.250000e-01  1.400000e-01 -1.900000e-01
    endloop
  endfacet
  facet normal  0.000000e+00  7.071065e-01 -7.071071e-01
    outer loop
      vertex   3.050000e-01  1.300000e-01 -2.000000e-01
      vertex  -3.150000e-01  1.300000e-01 -2.000000e-01
      vertex   3.050000e-01  1.500000e-01 -1.800000e-01
    endloop
  endfacet
  facet normal -1.607774e-08  7.071068e-01 -7.071068e-01
    outer loop
      vertex   3.050000e-01  1.500000e-01 -1.800000e-01
      vertex  -3.150000e-01  1.300000e-01 -2.000000e-01
      vertex  -3.250000e-01  1.400000e-01 -1.900000e-01
    endloop
  endfacet
  facet normal  0.000000e+00  7.071063e-01 -7.071074e-01
    outer loop
      vertex   3.050000e-01  1.500000e-01 -1.800000e-01
      vertex  -3.250000e-01  1.400000e-01 -1.900000e-01
      vertex  -3.250000e-01  1.500000e-01 -1.800000e-01
    endloop
  endfacet
  facet normal  7.071073e-01  7.071062e-01  0.000000e+00
    outer loop
      vertex   3.050000e-01  1.500000e-01  1.800000e-01
      vertex   3.250000e-01  1.300000e-01  1.800000e-01
      vertex   3.050000e-01  1.500000e-01 -1.800000e-01
    endloop
  endfacet
  facet normal  7.071073e-01  7.071062e-01  0.000000e+00
    outer loop
      vertex   3.050000e-01  1.500000e-01 -1.800000e-01
      vertex   3.250000e-01  1.300000e-01  1.800000e-01
      vertex   3.250000e-01  1.300000e-01 -1.800000e-01
    endloop
  endfacet
  facet normal  0.000000e+00  1.000000e+00  0.000000e+00
    outer loop
      vertex  -1.870096e-01  1.000000e-01  7.500000e-03
      vertex  -1.850000e-01  1.000000e-01  3.469447e-18
      vertex  -2.129904e-01  1.000000e-01 -7.500000e-03
    endloop
  endfacet
  facet normal  0.000000e+00  1.000000e+00  0.000000e+00
    outer loop
      vertex  -2.129904e-01  1.000000e-01 -7.500000e-03
      vertex  -1.850000e-01  1.000000e-01  3.469447e-18
      vertex  -1.870096e-01  1.000000e-01 -7.500000e-03
    endloop
  endfacet
  facet normal  0.000000e+00  1.000000e+00  0.000000e+00
    outer loop
      vertex  -2.129904e-01  1.000000e-01  7.500000e-03
      vertex  -2.075000e-01  1.000000e-01  1.299038e-02
      vertex  -2.000000e-01  1.000000e-01  1.500000e-02
    endloop
  endfacet
  facet normal  0.000000e+00  1.000000e+00  0.000000e+00
    outer loop
      vertex  -1.870096e-01  1.000000e-01 -7.500000e-03
      vertex  -1.925000e-01  1.000000e-01 -1.299038e-02
      vertex  -2.129904e-01  1.000000e-01 -7.500000e-03
    endloop
  endfacet
  facet normal  0.000000e+00  1.000000e+00  0.000000e+00
    outer loop
      vertex  -2.129904e-01  1.000000e-01 -7.500000e-03
      vertex  -1.925000e-01  1.000000e-01 -1.299038e-02
      vertex  -2.000000e-01  1.000000e-01 -1.500000e-02
    endloop
  endfacet
  facet normal  0.000000e+00  1.000000e+00  0.000000e+00
    outer loop
      vertex  -2.129904e-01  1.000000e-01 -7.500000e-03
      vertex  -2.000000e-01  1.000000e-01 -1.500000e-02
      vertex  -2.075000e-01  1.000000e-01 -1.299038e-02
    endloop
  endfacet
  facet normal  0.000000e+00  1.000000e+00 -0.000000e+00
    outer loop
      vertex  -2.129904e-01  1.000000e-01 -7.500000e-03
      vertex  -2.150000e-01  1.000000e-01 -1.561251e-17
      vertex  -1.870096e-01  1.000000e-01  7.500000e-03
    endloop
  endfacet
  facet normal  0.000000e+00  1.000000e+00  0.000000e+00
    outer loop
      vertex  -1.870096e-01  1.000000e-01  7.500000e-03
      vertex  -2.150000e-01  1.000000e-01 -1.561251e-17
      vertex  -2.129904e-01  1.000000e-01  7.500000e-03
    endloop
  endfacet
  facet normal  0.000000e+00  1.000000e+00  0.000000e+00
    outer loop
      vertex  -1.870096e-01  1.000000e-01  7.500000e-03
      vertex  -2.129904e-01  1.000000e-01  7.500000e-03
      vertex  -1.925000e-01  1.000000e-01  1.299038e-02
    endloop
  endfacet
  facet normal  0.000000e+00  1.000000e+00  0.000000e+00
    outer loop
      vertex  -1.925000e-01  1.000000e-01  1.299038e-02
      vertex  -2.129904e-01  1.000000e-01  7.500000e-03
      vertex  -2.000000e-01  1.000000e-01  1.500000e-02
    endloop
  endfacet
  facet normal  0.000000e+00  1.000000e+00  0.000000e+00
    outer loop
      vertex  -3.250000e-01  1.500000e-01  1.800000e-01
      vertex  -2.000000e-01  1.500000e-01  1.500000e-02
      vertex  -2.075000e-01  1.500000e-01  1.299038e-02
    endloop
  endfacet
  facet normal  0.000000e+00  1.000000e+00  0.000000e+00
    outer loop
      vertex  -2.075000e-01  1.500000e-01  1.299038e-02
      vertex  -2.129904e-01  1.500000e-01  7.500000e-03
      vertex  -3.250000e-01  1.500000e-01  1.800000e-01
    endloop
  endfacet
  facet normal  0.000000e+00  1.000000e+00  0.000000e+00
    outer loop
      vertex  -3.250000e-01  1.500000e-01  1.800000e-01
      vertex  -2.129904e-01  1.500000e-01  7.500000e-03
      vertex  -2.150000e-01  1.500000e-01 -2.775558e-17
    endloop
  endfacet
  facet normal  0.000000e+00  1.000000e+00  0.000000e+00
    outer loop
      vertex  -3.250000e-01  1.500000e-01  1.800000e-01
      vertex  -2.150000e-01  1.500000e-01 -2.775558e-17
      vertex  -3.250000e-01  1.500000e-01 -1.800000e-01
    endloop
  endfacet
  facet normal  0.000000e+00  1.000000e+00  0.000000e+00
    outer loop
      vertex  -3.250000e-01  1.500000e-01 -1.800000e-01
      vertex  -2.150000e-01  1.500000e-01 -2.775558e-17
      vertex  -2.129904e-01  1.500000e-01 -7.500000e-03
    endloop
  endfacet
  facet normal  0.000000e+00  1.000000e+00  0.000000e+00
    outer loop
      vertex  -2.129904e-01  1.500000e-01 -7.500000e-03
      vertex  -2.075000e-01  1.500000e-01 -1.299038e-02
      vertex  -3.250000e-01  1.500000e-01 -1.800000e-01
    endloop
  endfacet
  facet normal  0.000000e+00  1.000000e+00  0.000000e+00
    outer loop
      vertex  -3.250000e-01  1.500000e-01 -1.800000e-01
      vertex  -2.075000e-01  1.500000e-01 -1.299038e-02
      vertex  -2.000000e-01  1.500000e-01 -1.500000e-02
    endloop
  endfacet
  facet normal  0.000000e+00  1.000000e+00  0.000000e+00
    outer loop
      vertex  -3.250000e-01  1.500000e-01 -1.800000e-01
      vertex  -2.000000e-01  1.500000e-01 -1.500000e-02
      vertex   3.050000e-01  1.500000e-01 -1.800000e-01
    endloop
  endfacet
  facet normal -0.000000e+00  1.000000e+00 -0.000000e+00
    outer loop
      vertex  -2.000000e-01  1.500000e-01  1.500000e-02
      vertex  -3.250000e-01  1.500000e-01  1.800000e-01
      vertex  -1.925000e-01  1.500000e-01  1.299038e-02
    endloop
  endfacet
  facet normal  0.000000e+00  1.000000e+00 -0.000000e+00
    outer loop
      vertex  -1.925000e-01  1.500000e-01  1.299038e-02
      vertex  -3.250000e-01  1.500000e-01  1.800000e-01
      vertex   3.050000e-01  1.500000e-01  1.800000e-01
    endloop
  endfacet
  facet normal -0.000000e+00  1.000000e+00  0.000000e+00
    outer loop
      vertex  -1.925000e-01  1.500000e-01  1.299038e-02
      vertex   3.050000e-01  1.500000e-01  1.800000e-01
      vertex  -1.870096e-01  1.500000e-01  7.500000e-03
    endloop
  endfacet
  facet normal -0.000000e+00  1.000000e+00  0.000000e+00
    outer loop
      vertex  -2.000000e-01  1.500000e-01 -1.500000e-02
      vertex  -1.925000e-01  1.500000e-01 -1.299038e-02
      vertex   3.050000e-01  1.500000e-01 -1.800000e-01
    endloop
  endfacet
  facet normal  0.000000e+00  1.000000e+00  0.000000e+00
    outer loop
      vertex   3.050000e-01  1.500000e-01 -1.800000e-01
      vertex  -1.925000e-01  1.500000e-01 -1.299038e-02
      vertex  -1.870096e-01  1.500000e-01 -7.500000e-03
    endloop
  endfacet
  facet normal  0.000000e+00  1.000000e+00 -0.000000e+00
    outer loop
      vertex   3.050000e-01  1.500000e-01 -1.800000e-01
      vertex  -1.870096e-01  1.500000e-01 -7.500000e-03
      vertex   3.050000e-01  1.500000e-01  1.800000e-01
    endloop
  endfacet
  facet normal  0.000000e+00  1.000000e+00  0.000000e+00
    outer loop
      vertex   3.050000e-01  1.500000e-01  1.800000e-01
      vertex  -1.870096e-01  1.500000e-01 -7.500000e-03
      vertex  -1.850000e-01  1.500000e-01  0.000000e+00
    endloop
  endfacet
  facet normal  0.000000e+00  1.000000e+00  0.000000e+00
    outer loop
      vertex   3.050000e-01  1.500000e-01  1.800000e-01
      vertex  -1.850000e-01  1.500000e-01  0.000000e+00
      vertex  -1.870096e-01  1.500000e-01  7.500000e-03
    endloop
  endfacet
  facet normal  2.588193e-01  0.000000e+00 -9.659258e-01
    outer loop
      vertex  -2.075000e-01  1.000000e-01  1.299038e-02
      vertex  -2.000000e-01  1.500000e-01  1.500000e-02
      vertex  -2.000000e-01  1.000000e-01  1.500000e-02
    endloop
  endfacet
  facet normal -2.588188e-01  0.000000e+00 -9.659259e-01
    outer loop
      vertex  -2.000000e-01  1.000000e-01  1.500000e-02
      vertex  -2.000000e-01  1.500000e-01  1.500000e-02
      vertex  -1.925000e-01  1.500000e-01  1.299038e-02
    endloop
  endfacet
  facet normal -2.588188e-01  0.000000e+00 -9.659259e-01
    outer loop
      vertex  -2.000000e-01  1.000000e-01  1.500000e-02
      vertex  -1.925000e-01  1.500000e-01  1.299038e-02
      vertex  -1.925000e-01  1.000000e-01  1.299038e-02
    endloop
  endfacet
  facet normal -7.071069e-01  0.000000e+00 -7.071066e-01
    outer loop
      vertex  -1.925000e-01  1.000000e-01  1.299038e-02
      vertex  -1.925000e-01  1.500000e-01  1.299038e-02
      vertex  -1.870096e-01  1.500000e-01  7.500000e-03
    endloop
  endfacet
  facet normal -7.071069e-01  0.000000e+00 -7.071066e-01
    outer loop
      vertex  -1.925000e-01  1.000000e-01  1.299038e-02
      vertex  -1.870096e-01  1.500000e-01  7.500000e-03
      vertex  -1.870096e-01  1.000000e-01  7.500000e-03
    endloop
  endfacet
  facet normal -9.659260e-01  0.000000e+00 -2.588186e-01
    outer loop
      vertex  -1.870096e-01  1.000000e-01  7.500000e-03
      vertex  -1.870096e-01  1.500000e-01  7.500000e-03
      vertex  -1.850000e-01  1.500000e-01  4.249154e-18
    endloop
  endfacet
  facet normal -9.659260e-01  0.000000e+00 -2.588186e-01
    outer loop
      vertex  -1.870096e-01  1.000000e-01  7.500000e-03
      vertex  -1.850000e-01  1.500000e-01  4.249154e-18
      vertex  -1.850000e-01  1.000000e-01  4.249154e-18
    endloop
  endfacet
  facet normal -9.659260e-01  0.000000e+00  2.588186e-01
    outer loop
      vertex  -1.850000e-01  1.000000e-01  4.249154e-18
      vertex  -1.850000e-01  1.500000e-01  4.249154e-18
      vertex  -1.870096e-01  1.500000e-01 -7.500000e-03
    endloop
  endfacet
  facet normal -9.659260e-01  0.000000e+00  2.588186e-01
    outer loop
      vertex  -1.850000e-01  1.000000e-01  4.249154e-18
      vertex  -1.870096e-01  1.500000e-01 -7.500000e-03
      vertex  -1.870096e-01  1.000000e-01 -7.500000e-03
    endloop
  endfacet
  facet normal -7.071069e-01  0.000000e+00  7.071066e-01
    outer loop
      vertex  -1.870096e-01  1.000000e-01 -7.500000e-03
      vertex  -1.870096e-01  1.500000e-01 -7.500000e-03
      vertex  -1.925000e-01  1.500000e-01 -1.299038e-02
    endloop
  endfacet
  facet normal -7.071069e-01  0.000000e+00  7.071066e-01
    outer loop
      vertex  -1.870096e-01  1.000000e-01 -7.500000e-03
      vertex  -1.925000e-01  1.500000e-01 -1.299038e-02
      vertex  -1.925000e-01  1.000000e-01 -1.299038e-02
    endloop
  endfacet
  facet normal -2.588188e-01  0.000000e+00  9.659259e-01
    outer loop
      vertex  -1.925000e-01  1.000000e-01 -1.299038e-02
      vertex  -1.925000e-01  1.500000e-01 -1.299038e-02
      vertex  -2.000000e-01  1.500000e-01 -1.500000e-02
    endloop
  endfacet
  facet normal -2.588188e-01  0.000000e+00  9.659259e-01
    outer loop
      vertex  -1.925000e-01  1.000000e-01 -1.299038e-02
      vertex  -2.000000e-01  1.500000e-01 -1.500000e-02
      vertex  -2.000000e-01  1.000000e-01 -1.500000e-02
    endloop
  endfacet
  facet normal  2.588193e-01 -0.000000e+00  9.659258e-01
    outer loop
      vertex  -2.000000e-01  1.000000e-01 -1.500000e-02
      vertex  -2.000000e-01  1.500000e-01 -1.500000e-02
      vertex  -2.075000e-01  1.500000e-01 -1.299038e-02
    endloop
  endfacet
  facet normal  2.588193e-01  0.000000e+00  9.659258e-01
    outer loop
      vertex  -2.000000e-01  1.000000e-01 -1.500000e-02
      vertex  -2.075000e-01  1.500000e-01 -1.299038e-02
      vertex  -2.075000e-01  1.000000e-01 -1.299038e-02
    endloop
  endfacet
  facet normal  7.071061e-01 -0.000000e+00  7.071075e-01
    outer loop
      vertex  -2.075000e-01  1.000000e-01 -1.299038e-02
      vertex  -2.075000e-01  1.500000e-01 -1.299038e-02
      vertex  -2.129904e-01  1.500000e-01 -7.500000e-03
    endloop
  endfacet
  facet normal  7.071061e-01  0.000000e+00  7.071075e-01
    outer loop
      vertex  -2.075000e-01  1.000000e-01 -1.299038e-02
      vertex  -2.129904e-01  1.500000e-01 -7.500000e-03
      vertex  -2.129904e-01  1.000000e-01 -7.500000e-03
    endloop
  endfacet
  facet normal  9.659260e-01 -0.000000e+00  2.588186e-01
    outer loop
      vertex  -2.129904e-01  1.000000e-01 -7.500000e-03
      vertex  -2.129904e-01  1.500000e-01 -7.500000e-03
      vertex  -2.150000e-01  1.500000e-01 -1.607813e-17
    endloop
  endfacet
  facet normal  9.659260e-01  0.000000e+00  2.588186e-01
    outer loop
      vertex  -2.129904e-01  1.000000e-01 -7.500000e-03
      vertex  -2.150000e-01  1.500000e-01 -1.607813e-17
      vertex  -2.150000e-01  1.000000e-01 -1.607813e-17
    endloop
  endfacet
  facet normal  9.659260e-01  0.000000e+00 -2.588186e-01
    outer loop
      vertex  -2.150000e-01  1.000000e-01 -1.607813e-17
      vertex  -2.150000e-01  1.500000e-01 -1.607813e-17
      vertex  -2.129904e-01  1.500000e-01  7.500000e-03
    endloop
  endfacet
  facet normal  9.659260e-01  0.000000e+00 -2.588186e-01
    outer loop
      vertex  -2.150000e-01  1.000000e-01 -1.607813e-17
      vertex  -2.129904e-01  1.500000e-01  7.500000e-03
      vertex  -2.129904e-01  1.000000e-01  7.500000e-03
    endloop
  endfacet
  facet normal  7.071061e-01  0.000000e+00 -7.071075e-01
    outer loop
      vertex  -2.129904e-01  1.000000e-01  7.500000e-03
      vertex  -2.129904e-01  1.500000e-01  7.500000e-03
      vertex  -2.075000e-01  1.500000e-01  1.299038e-02
    endloop
  endfacet
  facet normal  7.071061e-01  0.000000e+00 -7.071075e-01
    outer loop
      vertex  -2.129904e-01  1.000000e-01  7.500000e-03
      vertex  -2.075000e-01  1.500000e-01  1.299038e-02
      vertex  -2.075000e-01  1.000000e-01  1.299038e-02
    endloop
  endfacet
  facet normal  2.588193e-01  0.000000e+00 -9.659258e-01
    outer loop
      vertex  -2.075000e-01  1.000000e-01  1.299038e-02
      vertex  -2.075000e-01  1.500000e-01  1.299038e-02
      vertex  -2.000000e-01  1.500000e-01  1.500000e-02
    endloop
  endfacet
endsolid vcg
